PathFileType	4	(X/Y/Z)	G:\Shared drives\HPL_Drive\Pi-Spi Study\20230118_AMCsubject1\Trimmed_left_horiz_abd01_rotated.trc
DataRate	CameraRate	NumFrames	NumMarkers	Units	OrigDataRate	OrigDataStartFrame	OrigNumFrames
200.00	200.00	       5	35	mm	200.00	26	       200
Frame#	Time	C7			Sternum			r_AMC1			r_AMC2			r_AMC3			l_AMC1			l_AMC2			l_AMC3			PX			T8			r_humerous			r_elbow_medial			r_elbow_lateral			r_forearm			r_wrist_radius			r_wrist_ulna			r_MCP_1			r_MCP_3			l_humerous			l_elbow_medial			l_elbow_lateral			l_forearm			l_wrist_radius			l_wrist_ulna			l_MCP_1			l_MCP_3			r_ASIS			r_PSIS			l_ASIS			l_PSIS			r_IC			l_IC			TS			AI			AA			
		X1	Y1	Z1	X2	Y2	Z2	X3	Y3	Z3	X4	Y4	Z4	X5	Y5	Z5	X6	Y6	Z6	X7	Y7	Z7	X8	Y8	Z8	X9	Y9	Z9	X10	Y10	Z10	X11	Y11	Z11	X12	Y12	Z12	X13	Y13	Z13	X14	Y14	Z14	X15	Y15	Z15	X16	Y16	Z16	X17	Y17	Z17	X18	Y18	Z18	X19	Y19	Z19	X20	Y20	Z20	X21	Y21	Z21	X22	Y22	Z22	X23	Y23	Z23	X24	Y24	Z24	X25	Y25	Z25	X26	Y26	Z26	X27	Y27	Z27	X28	Y28	Z28	X29	Y29	Z29	X30	Y30	Z30	X31	Y31	Z31	X32	Y32	Z32	X33	Y33	Z33	X34	Y34	Z34	X35	Y35	Z35	

26	0.125	234.9735	1374.1516	-200.7424	370.9637	1322.1498	-220.4926	241.2628	1327.0079	-62.276	276.1066	1331.9568	-26.915	295.5938	1365.214	-50.4982	194.2129	1355.5061	-315.0204	215.4719	1375.1316	-357.3939	246.2458	1401.8478	-321.8711	427.6776	1125.2688	-238.8336	194.4579	1198.4298	-205.275	346.1002	1148.2634	-7.8479	272.018	1007.1907	-24.3517	292.8276	1020.2704	38.3827	349.5695	865.6848	60.8365	397.5687	802.2461	39.3715	351.8676	796.7969	62.9959	421.3327	720.5367	52.3094	374.3539	717.0247	71.7071	264.9271	1348.4722	-509.9364	221.1465	1259.5988	-618.2939	189.2668	1300.6698	-625.0771	161.9768	1314.1808	-780.7321	166.8048	1326.6963	-857.2566	160.9277	1283.9443	-856.695	148.4824	1327.9651	-933.5391	150.7834	1284.2841	-935.0426	389.327	904.2205	-100.9344	198.3813	932.8173	-170.4988	374.1127	890.0115	-357.0559	192.9895	927.4556	-272.3954	313.6017	967.683	-64.4703	288.1769	942.3195	-388.0054	139.329	1298.009	-248.4274	151.1008	1201.2413	-274.9718	143.109	1339.7082	-380.4666
27	0.13	234.9585	1374.1541	-200.7385	370.9048	1322.1858	-220.4927	241.2224	1326.9952	-62.2576	276.0861	1331.9551	-26.9259	295.5382	1365.1724	-50.4441	194.196	1355.4673	-315.0493	215.5818	1375.0461	-357.4439	246.1871	1401.8452	-321.9014	427.6926	1125.2639	-238.8277	194.4373	1198.442	-205.2776	346.1145	1148.2649	-7.8513	272.012	1007.2071	-24.4116	292.8251	1020.2564	38.3651	349.6664	865.6595	60.7602	397.5637	802.3063	39.3541	351.9432	796.6773	62.9008	421.3613	720.5734	52.2097	374.4117	716.9693	71.618	264.9877	1348.3724	-509.9565	221.1616	1259.5619	-618.2781	189.1299	1300.5122	-625.0468	161.9852	1314.1183	-780.7178	166.8183	1326.6216	-857.2736	160.9212	1283.8563	-856.6777	148.4485	1327.9054	-933.557	150.7464	1284.1809	-935.0375	389.308	904.2211	-100.9531	198.3671	932.8258	-170.5008	374.1089	890.0186	-357.0857	192.9794	927.4593	-272.3976	313.6355	967.6818	-64.4784	288.1875	942.351	-388.0379	139.0948	1297.9812	-248.1696	151.023	1201.2094	-274.9289	143.0865	1339.6567	-380.49
28	0.135	234.9467	1374.1586	-200.768	370.9144	1322.1843	-220.4665	241.2154	1326.9873	-62.2542	276.0764	1331.9585	-26.9311	295.526	1365.1939	-50.4855	194.173	1355.48	-315.0475	215.474	1375.1151	-357.4605	246.1724	1401.8726	-321.9271	427.6852	1125.2711	-238.8359	194.4197	1198.4437	-205.2884	346.1064	1148.2585	-7.8753	271.991	1007.2324	-24.415	292.8438	1020.274	38.3386	349.6141	865.657	60.7505	397.5968	802.3001	39.296	351.9408	796.7153	62.8314	421.4813	720.4536	52.1103	374.395	717.0523	71.5866	264.9833	1348.374	-509.974	221.1449	1259.5078	-618.2638	189.2635	1300.5773	-625.0544	161.9406	1314.0464	-780.7089	166.8196	1326.5154	-857.266	160.8916	1283.7999	-856.67	148.4579	1327.7938	-933.5665	150.7287	1284.1169	-935.0328	389.2829	904.1999	-100.9732	198.3482	932.8154	-170.5203	374.1113	890.0245	-357.0822	192.9844	927.447	-272.4293	313.6035	967.6611	-64.493	288.1824	942.3086	-388.0264	139.0771	1297.9639	-248.1835	151.0483	1201.2456	-274.9166	143.0673	1339.6019	-380.5117
29	0.14	234.9547	1374.157	-200.7582	370.9166	1322.1891	-220.4819	241.1782	1327.0005	-62.2806	276.0155	1331.9936	-26.9215	295.4965	1365.2131	-50.4934	194.1822	1355.4822	-315.1097	215.4599	1375.095	-357.4817	246.1494	1401.8783	-321.9453	427.7027	1125.2925	-238.799	194.4156	1198.4364	-205.2876	346.0768	1148.3025	-7.8847	272.0371	1007.2297	-24.481	292.8027	1020.2435	38.3325	349.65	865.6603	60.6885	397.6174	802.3671	39.2193	351.9769	796.7037	62.8081	421.4868	720.4993	52.0605	374.5276	716.937	71.479	264.9634	1348.3191	-509.9467	221.1505	1259.4858	-618.2571	189.1252	1300.4718	-625.0239	161.9598	1314.0123	-780.7208	166.8099	1326.4596	-857.2706	160.8838	1283.7115	-856.6608	148.4408	1327.7441	-933.571	150.6952	1284.0436	-935.0058	389.2866	904.1815	-100.9652	198.3405	932.8154	-170.523	374.0836	890.0315	-357.1011	192.9678	927.4458	-272.435	313.6206	967.6921	-64.5082	288.1953	942.3354	-388.0417	139.0613	1297.9976	-248.1811	151.0287	1201.2358	-274.8533	143.1064	1339.5736	-380.5227
30	0.145	234.9356	1374.1658	-200.7874	370.9051	1322.2067	-220.4946	241.168	1326.9989	-62.285	275.9729	1331.9692	-26.9244	295.4488	1365.1526	-50.4473	194.163	1355.4747	-315.1288	215.4649	1375.0978	-357.4929	246.1317	1401.8901	-321.9693	427.696	1125.3257	-238.7997	194.4132	1198.4341	-205.3031	346.0867	1148.2651	-7.8874	272.0495	1007.2386	-24.5184	292.8181	1020.2325	38.3215	349.6769	865.6571	60.6571	397.6906	802.3258	39.1206	351.9835	796.7404	62.7425	421.5388	720.4874	52.0189	374.5847	716.9478	71.3712	264.9749	1348.3285	-509.9874	221.1281	1259.4528	-618.2482	189.2636	1300.5486	-625.0258	161.9356	1313.9603	-780.7216	166.7745	1326.3967	-857.2812	160.8344	1283.6722	-856.6644	148.4215	1327.6793	-933.5888	150.6147	1284.0092	-934.9882	389.2481	904.1975	-100.9844	198.321	932.8068	-170.551	374.0847	890.0239	-357.105	192.9829	927.467	-272.4475	313.5995	967.67	-64.5192	288.1448	942.3534	-388.0467	139.0409	1298.0113	-248.1782	150.9984	1201.2372	-274.8195	143.0871	1339.5249	-380.5275
